<?xml version="1.0" standalone="no"?><!DOCTYPE svg PUBLIC "-//W3C//DTD SVG 1.1//EN" "http://www.w3.org/Graphics/SVG/1.1/DTD/svg11.dtd"><svg t="1576506790371" class="icon" viewBox="0 0 1024 1024" version="1.1" xmlns="http://www.w3.org/2000/svg" p-id="2552" xmlns:xlink="http://www.w3.org/1999/xlink" width="200" height="200"><defs><style type="text/css"></style></defs><path d="M921.608 878.917l-3.821 1.369c-10.447 3.743-20.155 6.648-28.853 8.635-8.572 1.955-17.115 2.946-25.391 2.946-12.649 0-24.464-2.089-35.117-6.209-10.541-4.07-20.734-11.413-30.3-21.823-9.719-10.579-19.303-25.381-28.485-43.993-9.293-18.847-18.697-43.07-27.953-72.001-9.332-29.102-19.174-64.506-29.252-105.23-10.113-40.805-20.993-89.251-32.339-143.993-11.467-55.326-23.954-118.662-37.115-188.248-13.305-70.344-28.103-150.348-43.984-237.79l-0.381-2.097-1.952-0.854c-8.37-3.659-16.36-6.184-23.748-7.504a127.743 127.743 0 0 0-22.414-1.97c-5.305 0-10.746 0.397-16.174 1.18-5.582 0.804-10.98 2.156-16.042 4.019a53.136 53.136 0 0 0-14.41 8.021c-4.513 3.527-8.209 8-10.98 13.281-27.537 52.041-59.854 117.765-96.056 195.345-35.936 77.025-77.362 167.049-123.141 267.595-21.21 1.063-25.761 11.105-25.761 19.521 0 5.965 2.446 12.927 7.468 21.234-24.626 53.438-50.903 110.94-78.122 170.954a32354.887 32354.887 0 0 1-86.631 189.246l-1.388 3.008 8.979 6.411 1.177 0.056c5.261 0.248 11.089 0.436 17.816 0.572 6.474 0.133 11.947 0.2 16.269 0.2 7.48 0 14.857-0.194 21.934-0.576 7.243-0.405 14.088-1.917 20.354-4.496 6.32-2.614 12.287-6.833 17.742-12.544 5.39-5.671 10.267-13.639 14.532-23.768 3.199-8.119 6.696-17.298 10.693-28.067 3.666-9.912 8.029-21.944 13.341-36.787a9791.628 9791.628 0 0 0 17.718-50.105c6.773-19.331 14.786-42.045 23.8-67.585l0.006-0.017c5.645-16.229 12.427-35.143 20.735-57.825 7.538-20.602 16.251-43.973 25.914-69.506 47.982-2.709 94.922-4.899 139.557-6.513a5560.15 5560.15 0 0 1 135.827-3.192c10.437 48.044 20.463 90.636 29.812 126.632 9.622 37.114 19.129 69.563 28.259 96.448 9.172 26.998 18.409 49.725 27.453 67.547 9.132 18.008 18.688 32.585 28.4 43.322 9.846 10.915 20.315 18.751 31.119 23.289 10.723 4.505 22.327 6.789 34.491 6.789 20.828 0 45.027-3.897 71.925-11.585 26.728-7.634 55.147-18.867 84.471-33.389l3.145-1.558-13.127-38.395zM584.048 544.99a38100.78 38100.78 0 0 0-119.666 1.662c-39.305 0.611-79.928 1.397-120.848 2.339 21.735-55.642 46.729-117.114 74.329-182.816 27.539-65.554 59.151-135.465 94.009-207.907a10086.692 10086.692 0 0 0 17.949 103.847c6.745 37.911 13.281 73.863 19.425 106.858 6.361 34.238 12.64 66.927 18.66 97.156 5.546 27.852 10.971 54.354 16.142 78.861z" p-id="2553"></path></svg>