<?xml version="1.0" standalone="no"?><!DOCTYPE svg PUBLIC "-//W3C//DTD SVG 1.1//EN" "http://www.w3.org/Graphics/SVG/1.1/DTD/svg11.dtd"><svg t="1576505799897" class="icon" viewBox="0 0 1024 1024" version="1.1" xmlns="http://www.w3.org/2000/svg" p-id="641" xmlns:xlink="http://www.w3.org/1999/xlink" width="200" height="200"><defs><style type="text/css"></style></defs><path d="M954.368 794.24l-34.816 0L754.56 391.808c0 0-4.736-6.656-14.656-7.744-9.92-1.024-25.28 5.184-25.28 5.184l-176 404.992L531.328 794.24C516.544 794.24 512 800.64 512 814.4 512 828.032 519.936 832 534.72 832l102.72 0c14.656 0 26.816-4.096 26.816-17.6 0-13.76-12.096-20.096-26.816-20.096L610.944 794.304l37.056-87.296 191.104 0 37.632 87.296-42.432 0c-14.784 0-26.88 6.4-26.88 20.096 0 13.696 12.032 17.6 26.88 17.6l120.064 0c14.848 0 26.816-3.968 26.816-17.6C981.184 800.64 969.28 794.24 954.368 794.24zM665.216 669.248 746.56 486.4l77.312 182.848L665.216 669.248zM261.056 772.608l-41.6 0 58.112-137.088 252.928 0 60.928-138.368L445.248 140.288c0 0-7.616-10.496-23.104-12.096C406.592 126.592 382.336 136.256 382.336 136.256l-276.544 636.352L94.464 772.608C71.104 772.608 64 782.656 64 804.224 64 825.728 76.544 832 99.776 832l161.344 0c23.296 0 42.176-6.4 42.176-27.776C303.232 782.656 284.352 772.608 261.056 772.608zM432.576 288.896l121.408 287.36L304.64 576.256 432.576 288.896z" p-id="642"></path></svg>